HIERARCHY
ROOT Hips
{
	OFFSET 0.000000 0.000000 0.000000
	CHANNELS 6 Xposition Yposition Zposition Xrotation Yrotation Zrotation
	JOINT LeftUpLeg_virtual
	{
		OFFSET 0.000000 0.000000 0.000000
		CHANNELS 3 Xrotation Yrotation Zrotation
		JOINT LeftUpLeg
		{
			OFFSET 11.394100 -6.187798 -0.413800
			CHANNELS 3 Xrotation Yrotation Zrotation
			JOINT LeftLeg
			{
				OFFSET 0.430247 -32.302673 3.732800
				CHANNELS 3 Xrotation Yrotation Zrotation
				JOINT LeftFoot
				{
					OFFSET -0.430247 -48.264931 -6.423300
					CHANNELS 3 Xrotation Yrotation Zrotation
					JOINT LeftToeBase
					{
						OFFSET 4.230900 -16.068199 23.438400
						CHANNELS 3 Xrotation Yrotation Zrotation
						JOINT LeftToe_End
						{
							OFFSET 4.510700 0.695400 19.974600
							CHANNELS 3 Xrotation Yrotation Zrotation
							End Site
							{
								OFFSET 0 0 0
							}
						}
					}
				}
			}
		}
	}
	JOINT RightUpLeg_virtual
	{
		OFFSET 0.000000 0.000000 0.000000
		CHANNELS 3 Xrotation Yrotation Zrotation
		JOINT RightUpLeg
		{
			OFFSET -11.333700 -6.187798 -0.413800
			CHANNELS 3 Xrotation Yrotation Zrotation
			JOINT RightLeg
			{
				OFFSET -0.430392 -32.302628 3.733000
				CHANNELS 3 Xrotation Yrotation Zrotation
				JOINT RightFoot
				{
					OFFSET 0.430392 -48.264973 -6.423500
					CHANNELS 3 Xrotation Yrotation Zrotation
					JOINT RightToeBase
					{
						OFFSET -4.230900 -16.068199 23.438400
						CHANNELS 3 Xrotation Yrotation Zrotation
						JOINT RightToe_End
						{
							OFFSET -4.510700 0.695400 19.974600
							CHANNELS 3 Xrotation Yrotation Zrotation
							End Site
							{
								OFFSET 0 0 0
							}
						}
					}
				}
			}
		}
	}
	JOINT Spine_virtual
	{
		OFFSET 0.000000 0.000000 0.000000
		CHANNELS 3 Xrotation Yrotation Zrotation
		JOINT Spine
		{
			OFFSET -0.002400 12.777504 0.315300
			CHANNELS 3 Xrotation Yrotation Zrotation
			JOINT Spine1
			{
				OFFSET -0.002067 5.816869 0.032633
				CHANNELS 3 Xrotation Yrotation Zrotation
				JOINT Spine1_split
				{
					OFFSET -0.002067 5.816869 0.032633
					CHANNELS 3 Xrotation Yrotation Zrotation
					JOINT Spine2
					{
						OFFSET -0.002067 5.816869 0.032633
						CHANNELS 3 Xrotation Yrotation Zrotation
						JOINT Neck_virtual
						{
							OFFSET 0.000000 0.000000 0.000000
							CHANNELS 3 Xrotation Yrotation Zrotation
							JOINT Neck
							{
								OFFSET -0.003700 21.199493 -0.826900
								CHANNELS 3 Xrotation Yrotation Zrotation
								JOINT Head
								{
									OFFSET 0.000000 20.442200 4.834800
									CHANNELS 3 Xrotation Yrotation Zrotation
									JOINT HeadTop_End
									{
										OFFSET 0.000000 34.668396 4.968400
										CHANNELS 3 Xrotation Yrotation Zrotation
										End Site
										{
											OFFSET 0 0 0
										}
									}
								}
							}
						}
						JOINT LeftShoulder_virtual
						{
							OFFSET 0.000000 0.000000 0.000000
							CHANNELS 3 Xrotation Yrotation Zrotation
							JOINT LeftShoulder
							{
								OFFSET 3.288150 8.794197 -1.372250
								CHANNELS 3 Xrotation Yrotation Zrotation
								JOINT LeftShoulder_split
								{
									OFFSET 3.288150 8.794197 -1.372250
									CHANNELS 3 Xrotation Yrotation Zrotation
									JOINT LeftArm
									{
										OFFSET 11.953299 -2.279007 -0.146200
										CHANNELS 3 Xrotation Yrotation Zrotation
										JOINT LeftForeArm
										{
											OFFSET 18.448900 0.000000 0.000000
											CHANNELS 3 Xrotation Yrotation Zrotation
											JOINT LeftHand
											{
												OFFSET 29.527798 0.000000 0.000000
												CHANNELS 3 Xrotation Yrotation Zrotation
												End Site
												{
													OFFSET 0 0 0
												}
											}
										}
									}
								}
							}
						}
						JOINT RightShoulder_virtual
						{
							OFFSET 0.000000 0.000000 0.000000
							CHANNELS 3 Xrotation Yrotation Zrotation
							JOINT RightShoulder
							{
								OFFSET -3.249400 8.794197 -1.372250
								CHANNELS 3 Xrotation Yrotation Zrotation
								JOINT RightShoulder_split
								{
									OFFSET -3.249400 8.794197 -1.372250
									CHANNELS 3 Xrotation Yrotation Zrotation
									JOINT RightArm
									{
										OFFSET -11.953299 -2.279007 -0.146200
										CHANNELS 3 Xrotation Yrotation Zrotation
										JOINT RightForeArm
										{
											OFFSET -18.448900 0.000000 0.000000
											CHANNELS 3 Xrotation Yrotation Zrotation
											JOINT RightHand
											{
												OFFSET -29.527802 0.000000 0.000000
												CHANNELS 3 Xrotation Yrotation Zrotation
												End Site
												{
													OFFSET 0 0 0
												}
											}
										}
									}
								}
							}
						}
					}
				}
			}
		}
	}
}
MOTION
Frames: 4
Frame Time: 0.03333333
7.289611 85.304710 -3.363091 0.000000 0.000000 0.000000 171.840415 -80.172467 -179.117804 4.834489 17.743231 7.730520 29.644507 13.101246 -3.258333 -22.084495 18.868488 -19.382439 -3.841758 -0.445294 0.183954 0.000000 0.000000 0.000000 166.183980 -80.383520 175.435513 -60.533521 20.253878 -9.242464 38.767013 0.197818 -7.595502 3.037139 19.135354 19.452903 -0.317482 5.176337 1.906094 0.000000 0.000000 0.000000 164.534626 -81.835188 173.391169 24.703867 -11.599250 8.960573 22.485968 -2.557862 0.642978 0.886599 -1.316692 1.553096 0.000000 0.000000 0.000000 21.898999 -2.843461 0.684526 11.117350 -3.381594 -5.478356 -26.702471 17.021830 -9.492199 0.000000 0.000000 0.000000 23.733806 -3.094464 0.919533 -0.675425 -11.125518 10.733136 -1.889706 -2.734612 0.955979 16.273050 18.690027 -75.736539 10.262184 -80.798010 8.673869 0.000000 0.000000 0.000000 22.448405 -2.885375 1.194462 6.960355 17.289924 13.192767 4.812148 3.869286 4.495028 -62.056599 51.609340 52.289770 177.838564 67.586033 -176.776484 0.000000 0.000000 0.000000 
7.439060 85.166458 -3.742325 0.000000 0.000000 0.000000 -178.786007 -82.583653 -169.028809 2.880458 19.045983 9.367169 31.871408 11.461055 -3.268276 -22.345065 15.768858 -18.960656 -4.790532 -0.409850 0.523848 0.000000 0.000000 0.000000 174.277700 -83.739717 -175.951438 -59.569345 18.075191 -11.778995 43.089953 -0.233213 -7.383676 0.470523 16.184099 18.828251 0.987650 5.044571 1.415632 0.000000 0.000000 0.000000 173.442217 -83.874300 -177.405230 23.652044 -12.229694 8.430763 22.270517 -2.849620 0.838097 1.561969 -0.812221 1.501026 0.000000 0.000000 0.000000 21.520594 -3.182830 0.845996 10.156590 -3.098659 -7.162336 -23.146478 18.921021 -11.096570 0.000000 0.000000 0.000000 23.455638 -3.356355 1.188472 -0.644444 -9.829430 9.962284 -1.742031 -3.396736 0.898020 8.199207 27.295826 -70.908586 -1.183874 -85.531959 -1.768077 0.000000 0.000000 0.000000 22.110214 -3.205491 1.334333 7.243024 18.536042 13.278152 4.111520 3.914247 4.537882 -57.095669 45.774896 46.517977 177.429846 66.902584 -176.556524 0.000000 0.000000 0.000000 
7.378043 85.290810 -4.354595 0.000000 0.000000 0.000000 -155.171885 -85.433823 -144.719455 0.003121 19.624908 11.697285 33.950391 9.410218 -2.940699 -21.580027 11.898855 -18.995378 -4.879842 -0.321418 0.570359 0.000000 0.000000 0.000000 -150.958942 -87.625207 -140.708645 -58.143447 15.949472 -14.664080 48.691432 -0.648698 -6.871553 -1.461821 12.977912 18.843172 1.559428 4.723036 0.761733 0.000000 0.000000 0.000000 -166.229469 -86.604026 -156.989152 22.307688 -12.292840 8.027141 21.708920 -3.092527 1.085306 1.828213 -0.044401 1.126014 0.000000 0.000000 0.000000 21.144951 -3.496710 1.057898 8.584836 -2.857204 -7.436063 -19.543318 20.426838 -12.523053 0.000000 0.000000 0.000000 22.959652 -3.536170 1.476004 -0.560251 -8.771310 9.617465 -1.021117 -3.089242 0.435845 0.656290 30.443792 -66.883740 -154.537756 -87.015346 -154.178243 0.000000 0.000000 0.000000 21.704868 -3.495540 1.454396 7.537112 19.735842 13.040203 3.119442 3.997181 4.073281 -55.096356 40.808536 44.136696 177.943107 66.904708 -177.301548 0.000000 0.000000 0.000000 
7.206151 85.558578 -4.962753 0.000000 0.000000 0.000000 -89.645058 -86.423408 -78.775809 -3.523786 19.166766 14.250164 35.618514 7.447266 -2.333625 -20.303282 7.802689 -19.084573 -4.021345 -0.186044 0.243355 0.000000 0.000000 0.000000 -46.082221 -85.968470 -35.462779 -55.862089 14.233003 -17.303743 54.326201 -0.893994 -6.349173 -3.050726 9.698339 19.540497 1.391426 4.238492 0.333746 0.000000 0.000000 0.000000 -87.973841 -87.732892 -78.808341 20.797062 -11.725256 7.615023 20.818983 -3.182399 1.163989 1.366618 0.597696 0.515553 0.000000 0.000000 0.000000 20.703446 -3.699521 1.056122 6.880240 -2.644413 -6.344544 -15.969795 21.506367 -13.345397 0.000000 0.000000 0.000000 22.249526 -3.614229 1.510900 -0.443901 -8.112106 9.462473 -0.501418 -2.509036 -0.390587 -3.417242 28.221976 -65.463156 -171.954739 -78.697740 -170.984961 0.000000 0.000000 0.000000 21.253064 -3.671486 1.371388 7.727656 20.678246 12.491414 2.001131 4.482389 3.690611 -54.698190 36.497813 43.879345 179.087082 67.681608 -178.788398 0.000000 0.000000 0.000000 
